<?xml version="1.0" standalone="no"?>
<!DOCTYPE svg PUBLIC "-//W3C//DTD SVG 20010904//EN"
 "http://www.w3.org/TR/2001/REC-SVG-20010904/DTD/svg10.dtd">
<svg version="1.0" xmlns="http://www.w3.org/2000/svg"
 width="512.000000pt" height="512.000000pt" viewBox="0 0 512.000000 512.000000"
 preserveAspectRatio="xMidYMid meet">
<metadata>
Created by potrace 1.16, written by Peter Selinger 2001-2019
</metadata>
<g transform="translate(0.000000,512.000000) scale(0.100000,-0.100000)"
fill="#000000" stroke="none">
<path d="M2234 4006 c-30 -30 -34 -40 -34 -86 0 -46 4 -56 34 -86 l34 -34 292
0 292 0 34 34 c30 30 34 40 34 86 0 46 -4 56 -34 86 l-34 34 -292 0 -292 0
-34 -34z"/>
<path d="M1194 3686 c-30 -30 -34 -40 -34 -86 0 -46 4 -56 34 -86 l34 -34
1332 0 1332 0 34 34 c30 30 34 40 34 86 0 46 -4 56 -34 86 l-34 34 -1332 0
-1332 0 -34 -34z"/>
<path d="M1400 2438 c0 -601 4 -939 11 -968 40 -173 193 -328 370 -375 80 -22
1478 -22 1558 0 176 46 320 190 366 366 12 45 15 209 15 977 l0 922 -120 0
-119 0 -3 -907 -3 -908 -24 -52 c-29 -65 -91 -124 -157 -149 -46 -18 -84 -19
-734 -19 -650 0 -688 1 -734 19 -66 25 -128 84 -157 149 l-24 52 -3 908 -3
907 -119 0 -120 0 0 -922z"/>
<path d="M2154 2806 l-34 -34 0 -412 0 -412 34 -34 c30 -30 40 -34 86 -34 46
0 56 4 86 34 l34 34 0 412 0 412 -34 34 c-30 30 -40 34 -86 34 -46 0 -56 -4
-86 -34z"/>
<path d="M2794 2806 l-34 -34 0 -412 0 -412 34 -34 c30 -30 40 -34 86 -34 46
0 56 4 86 34 l34 34 0 412 0 412 -34 34 c-30 30 -40 34 -86 34 -46 0 -56 -4
-86 -34z"/>
</g>
</svg>
