<?xml version="1.0" standalone="no"?>
<!DOCTYPE svg PUBLIC "-//W3C//DTD SVG 20010904//EN"
 "http://www.w3.org/TR/2001/REC-SVG-20010904/DTD/svg10.dtd">
<svg version="1.0" xmlns="http://www.w3.org/2000/svg"
 width="512.000000pt" height="512.000000pt" viewBox="0 0 512.000000 512.000000"
 preserveAspectRatio="xMidYMid meet">

<g transform="translate(0.000000,512.000000) scale(0.100000,-0.100000)"
fill="#000000" stroke="none">
<path d="M1950 4344 c-14 -9 -169 -204 -345 -434 l-320 -418 -195 -3 c-177 -4
-199 -6 -236 -26 -65 -34 -100 -69 -128 -125 l-26 -52 0 -290 c0 -285 1 -292
24 -341 13 -27 39 -64 57 -82 38 -35 112 -72 147 -73 l22 0 0 -661 c0 -735 1
-746 66 -856 66 -113 189 -199 318 -222 83 -15 2369 -15 2452 0 184 33 334
182 373 367 7 36 11 270 11 712 l0 660 23 0 c37 0 123 48 158 88 67 76 69 86
69 407 0 259 -2 294 -19 330 -27 60 -68 103 -125 133 -49 26 -58 27 -246 31
l-195 3 -310 405 c-170 223 -322 418 -337 434 -21 23 -34 29 -68 29 -57 0
-110 -50 -110 -103 0 -39 -20 -11 357 -505 106 -139 193 -255 193 -257 0 -3
-448 -5 -995 -5 -547 0 -995 3 -995 6 0 3 100 137 222 297 122 161 244 320
270 355 41 54 48 70 48 108 0 37 -6 51 -29 75 -34 34 -89 39 -131 13z m2240
-1096 c19 -21 20 -34 20 -260 0 -225 -1 -239 -20 -258 -20 -20 -33 -20 -1623
-20 -1434 0 -1605 2 -1625 16 -22 15 -22 18 -22 261 0 215 2 249 17 265 15 17
79 18 1624 18 l1608 0 21 -22z m-232 -1420 l-3 -673 -22 -41 c-28 -52 -96
-111 -143 -125 -23 -6 -438 -9 -1241 -7 l-1206 3 -49 30 c-30 19 -60 49 -79
79 l-30 49 -3 679 -2 678 1390 0 1391 0 -3 -672z"/>
<path d="M2522 2328 c-20 -5 -40 -21 -52 -41 -19 -31 -20 -53 -20 -564 l0
-533 29 -32 c26 -29 35 -33 81 -33 46 0 55 4 81 33 l29 32 0 531 c0 453 -2
534 -15 559 -24 46 -75 65 -133 48z"/>
<path d="M1838 2201 l-33 -29 -3 -429 c-2 -411 -1 -429 17 -460 40 -64 133
-66 181 -5 19 24 20 42 20 448 0 307 -3 430 -12 449 -27 60 -117 73 -170 26z"/>
<path d="M3153 2210 c-52 -31 -54 -56 -51 -505 l3 -404 29 -30 c56 -58 147
-46 180 24 23 48 24 831 1 875 -31 61 -100 78 -162 40z"/>
</g>
</svg>
